<svg id="Layer_1" data-name="Layer 1" xmlns="http://www.w3.org/2000/svg" viewBox="0 0 677 212"><defs><style>.cls-1{fill:#05cc6f;}.cls-2{fill:#fecc01;}.cls-3{fill:#f71d51;}</style></defs><title>tuesdayArtboard 2</title><circle class="cls-1" cx="118.35" cy="140.28" r="17.16"/><rect class="cls-2" x="53.66" y="85.74" width="32.78" height="74.26" rx="16.39" ry="16.39" transform="translate(1.17 -0.66) rotate(0.54)"/><rect class="cls-3" x="53.14" y="20.11" width="32.78" height="94.82" rx="16.39" ry="16.39" transform="translate(136.75 -2.29) rotate(89.76)"/><path d="M195.1,142.65a52.71,52.71,0,0,1-7.79,2.6,33.22,33.22,0,0,1-8.16,1.05,20.67,20.67,0,0,1-5.56-.73,12.21,12.21,0,0,1-4.6-2.37,11.25,11.25,0,0,1-3.1-4.28,16.59,16.59,0,0,1-1.14-6.56v-22h-5.92v-13h5.92v-15h17.32v15h9.38v13h-9.38v15.85a4.49,4.49,0,0,0,1,3.33,3.78,3.78,0,0,0,2.73.95,11.87,11.87,0,0,0,2.92-.41A20.24,20.24,0,0,0,192,129Z"/><path d="M214.51,146.21q-7.29,0-11.12-4.42t-3.83-12.9V97.37h17.32V125a7.63,7.63,0,0,0,1.41,4.92,4.73,4.73,0,0,0,3.87,1.73,10.36,10.36,0,0,0,4.1-.91,10.66,10.66,0,0,0,4.19-4V97.37h17.32v28.79a5.85,5.85,0,0,0,.73,3.42,3.45,3.45,0,0,0,2.55,1.14V145.3a38.72,38.72,0,0,1-7.29.91q-8.83,0-10.21-6.65l-.36-1.74a19.53,19.53,0,0,1-8,6.43A27.35,27.35,0,0,1,214.51,146.21Z"/><path d="M281.76,146.21a30.21,30.21,0,0,1-11.21-2,23.8,23.8,0,0,1-8.25-5.33,23,23,0,0,1-5.06-7.75,24.82,24.82,0,0,1-1.73-9.2,28.5,28.5,0,0,1,1.69-9.84,22.67,22.67,0,0,1,5-8.11,24.28,24.28,0,0,1,8.2-5.52,32.31,32.31,0,0,1,22.65,0A24.49,24.49,0,0,1,301.3,104a22.47,22.47,0,0,1,5,7.93,26.59,26.59,0,0,1,1.69,9.43c0,.91-.05,1.84-.14,2.78s-.19,1.78-.32,2.51H273.92a6.72,6.72,0,0,0,2.82,5.51,9.92,9.92,0,0,0,5.56,1.68,11.56,11.56,0,0,0,5.33-1.27A6.45,6.45,0,0,0,291,129l14.67,4.19a23.13,23.13,0,0,1-9,9.38Q290.59,146.21,281.76,146.21Zm7.65-30a8.87,8.87,0,0,0-2.55-5.47,8.22,8.22,0,0,0-10.75,0,8.93,8.93,0,0,0-2.56,5.47Z"/><path d="M333.42,146.21a38.06,38.06,0,0,1-12.3-2.05,27.91,27.91,0,0,1-10.2-6l5.92-10.39a45.57,45.57,0,0,0,8.61,4.65,20.91,20.91,0,0,0,7.61,1.64c2.43,0,3.64-.76,3.64-2.28a2.61,2.61,0,0,0-1.41-2.19,24.17,24.17,0,0,0-5.51-2.09,81.27,81.27,0,0,1-8.52-2.87,24.36,24.36,0,0,1-5.56-3.06,9.56,9.56,0,0,1-3.05-3.64,11.36,11.36,0,0,1-.91-4.74,15.63,15.63,0,0,1,1.45-6.74,16.46,16.46,0,0,1,4.06-5.38,18.09,18.09,0,0,1,6.2-3.51,24.16,24.16,0,0,1,7.88-1.23,36.55,36.55,0,0,1,10.07,1.37,25.55,25.55,0,0,1,9.61,5.56l-6.56,10.39a46.93,46.93,0,0,0-7.47-4.15,15,15,0,0,0-5.65-1.23,5,5,0,0,0-2.55.59,2,2,0,0,0-1,1.87,2.55,2.55,0,0,0,1.46,2.23,25.09,25.09,0,0,0,5.74,2,65.62,65.62,0,0,1,8.75,2.87,23.35,23.35,0,0,1,5.7,3.28,10.38,10.38,0,0,1,3.05,4,13.52,13.52,0,0,1,.91,5.15,15.5,15.5,0,0,1-1.37,6.65,14,14,0,0,1-4,5,18,18,0,0,1-6.29,3.18A29.3,29.3,0,0,1,333.42,146.21Z"/><path d="M379.35,146.21a22.4,22.4,0,0,1-9.07-1.82,20.85,20.85,0,0,1-7.15-5.15,23.82,23.82,0,0,1-4.69-7.93,29,29,0,0,1-1.69-10.07,30.47,30.47,0,0,1,1.55-9.84,24.1,24.1,0,0,1,4.33-7.88,19.91,19.91,0,0,1,6.6-5.2,19.18,19.18,0,0,1,8.48-1.87,17.57,17.57,0,0,1,8.52,2.1,14.61,14.61,0,0,1,6,5.92V78.78h17.31v47.38a5.85,5.85,0,0,0,.73,3.42,3.48,3.48,0,0,0,2.55,1.14V145.3a38.62,38.62,0,0,1-7.29.91q-8.83,0-10.2-6.65l-.37-1.74a14.92,14.92,0,0,1-6.65,6.38A20.4,20.4,0,0,1,379.35,146.21Zm4.74-14.58q4.74,0,8.2-4.92v-8.57a12.31,12.31,0,0,0-3.74-5.15,8.24,8.24,0,0,0-5.19-2,7.63,7.63,0,0,0-3.51.82,8.29,8.29,0,0,0-2.73,2.28,12.12,12.12,0,0,0-1.83,3.37,12.29,12.29,0,0,0-.68,4.1,10.15,10.15,0,0,0,2.6,7.29A9,9,0,0,0,384.09,131.63Z"/><path d="M434,146.21a18.47,18.47,0,0,1-6.65-1.19,16.5,16.5,0,0,1-5.33-3.23,14.79,14.79,0,0,1-3.51-4.88,14.62,14.62,0,0,1-1.27-6.1,14.2,14.2,0,0,1,1.55-6.65,15.94,15.94,0,0,1,4.28-5.2,19.69,19.69,0,0,1,6.51-3.37,27.78,27.78,0,0,1,8.34-1.18,22.38,22.38,0,0,1,9.66,1.82v-1.46a6.14,6.14,0,0,0-2-5c-1.31-1.1-3.42-1.64-6.33-1.64a21,21,0,0,0-7.56,1.32,37.13,37.13,0,0,0-7.29,3.87l-5-10.75A39,39,0,0,1,441,96.45q11.49,0,17.68,5.11t6.2,15.31v9.29a6,6,0,0,0,.72,3.42,3.49,3.49,0,0,0,2.56,1.14V145.3c-1.4.3-2.72.53-4,.68a28.1,28.1,0,0,1-3.32.23q-4.65,0-7.07-1.69a7.86,7.86,0,0,1-3.14-5l-.37-1.74a21.92,21.92,0,0,1-7.38,6.25A19.43,19.43,0,0,1,434,146.21Zm5.2-12.4a10.74,10.74,0,0,0,3.19-.5,11.41,11.41,0,0,0,2.91-1.32A7.11,7.11,0,0,0,447,130.4a3,3,0,0,0,.64-1.78v-3.55a23.57,23.57,0,0,0-3.37-.91,16.45,16.45,0,0,0-3.28-.37,8.68,8.68,0,0,0-5.29,1.55,4.7,4.7,0,0,0-2.09,3.92,4,4,0,0,0,1.59,3.28A6.3,6.3,0,0,0,439.22,133.81Z"/><path d="M471.93,150.13a21.35,21.35,0,0,0,7.11,1.55q5.56,0,6.11-6.38L467.74,97.37h17.77l9.11,33.26L502,97.37h16.13L501.91,151a23,23,0,0,1-3.09,6.42,20.93,20.93,0,0,1-4.79,4.92,21.3,21.3,0,0,1-6.15,3.15,22.6,22.6,0,0,1-7,1.09,23.74,23.74,0,0,1-8.93-1.73Z"/><path d="M522.45,145.3v-6H526v6Z"/><path d="M532.35,129.38a17.33,17.33,0,0,1,1.15-6.32,15.79,15.79,0,0,1,3.25-5.19,15.21,15.21,0,0,1,5-3.49,15.76,15.76,0,0,1,6.44-1.28,14.84,14.84,0,0,1,7.84,2,13,13,0,0,1,5,5.5l-4,1.28a9.6,9.6,0,0,0-3.73-3.8,11,11,0,0,0-9.84-.39,11.43,11.43,0,0,0-3.65,2.64,12.2,12.2,0,0,0-2.43,4,14.64,14.64,0,0,0,0,10.08,12.91,12.91,0,0,0,2.49,4.1,11.77,11.77,0,0,0,3.68,2.74,10.15,10.15,0,0,0,4.46,1,10.68,10.68,0,0,0,3-.43,11.32,11.32,0,0,0,2.76-1.18,10.08,10.08,0,0,0,2.19-1.73,5.73,5.73,0,0,0,1.28-2.07l4.07,1.22a10.51,10.51,0,0,1-1.95,3.13,13.53,13.53,0,0,1-3,2.49,15.11,15.11,0,0,1-3.83,1.64,16.53,16.53,0,0,1-4.35.57A15.35,15.35,0,0,1,536.84,141a16.53,16.53,0,0,1-3.31-5.25A17.07,17.07,0,0,1,532.35,129.38Z"/><path d="M581.07,145.9a15,15,0,0,1-6.32-1.3,15.57,15.57,0,0,1-5-3.56,16,16,0,0,1-3.25-5.22,17.56,17.56,0,0,1,0-12.58,16.56,16.56,0,0,1,3.28-5.22,16,16,0,0,1,4.95-3.58,14.59,14.59,0,0,1,6.26-1.34,14.82,14.82,0,0,1,6.29,1.34,15.85,15.85,0,0,1,5,3.58,16.56,16.56,0,0,1,3.28,5.22,17.56,17.56,0,0,1,0,12.58A16,16,0,0,1,592.4,141a15.48,15.48,0,0,1-5,3.56A15.25,15.25,0,0,1,581.07,145.9Zm-11.48-16.28a13.09,13.09,0,0,0,.91,4.95,13.48,13.48,0,0,0,2.46,4,11.12,11.12,0,0,0,3.64,2.71,10.48,10.48,0,0,0,4.47,1,10.15,10.15,0,0,0,4.46-1,11.77,11.77,0,0,0,3.68-2.74,13.07,13.07,0,0,0,2.49-4,14,14,0,0,0,0-9.93,13,13,0,0,0-2.49-4.07,11.89,11.89,0,0,0-3.68-2.73,10.15,10.15,0,0,0-4.46-1,10,10,0,0,0-4.44,1,11.86,11.86,0,0,0-3.64,2.76,13.48,13.48,0,0,0-2.49,4.1A13.63,13.63,0,0,0,569.59,129.62Z"/><path d="M650.81,145.3h-4.13V127.62q0-5.53-1.76-8.14a5.91,5.91,0,0,0-5.23-2.61,9,9,0,0,0-3.43.66,10.72,10.72,0,0,0-3,1.89,13,13,0,0,0-2.4,2.88A14.11,14.11,0,0,0,629.3,126V145.3h-4.13V127.62c0-3.77-.56-6.5-1.7-8.2a5.83,5.83,0,0,0-5.22-2.55,9.32,9.32,0,0,0-6.38,2.49,13.78,13.78,0,0,0-4,6.56V145.3h-4.13V113.65h3.76v7.16a15,15,0,0,1,5.11-5.68,12.65,12.65,0,0,1,7-2,9,9,0,0,1,6.41,2.25,9.76,9.76,0,0,1,3,5.89q4.44-8.14,12.21-8.14a9.66,9.66,0,0,1,4.53,1,7.67,7.67,0,0,1,3,2.77,12.79,12.79,0,0,1,1.64,4.31,27.63,27.63,0,0,1,.52,5.62Z"/></svg>
